<?xml version="1.0" encoding="UTF-8" standalone="no"?>
<!DOCTYPE svg PUBLIC "-//W3C//DTD SVG 1.1//EN" "http://www.w3.org/Graphics/SVG/1.1/DTD/svg11.dtd">
<svg width="100%" height="100%" viewBox="0 0 256 256" version="1.1" xmlns="http://www.w3.org/2000/svg" xmlns:xlink="http://www.w3.org/1999/xlink" xml:space="preserve" xmlns:serif="http://www.serif.com/" style="fill-rule:evenodd;clip-rule:evenodd;stroke-linejoin:round;stroke-miterlimit:2;">
    <g id="g71">
        <path id="path2999-1-6" d="M128,0C57.309,0 0.003,57.307 0.003,127.999C0.003,128.544 -0.004,129.087 0.003,129.631C-0.004,129.698 0.003,129.766 0.003,129.835L0.003,254.16C0.003,255.169 0.712,255.997 1.595,255.997L126.408,255.997C126.463,255.998 126.517,255.996 126.571,255.997C127.047,256.002 127.523,255.997 128,255.997C128.477,255.997 128.953,256.002 129.429,255.997C129.481,256.004 129.537,255.997 129.592,255.997L254.405,255.997C255.288,255.997 255.997,255.169 255.997,254.16L255.997,129.835C255.997,129.766 256.004,129.698 255.997,129.631C256.004,129.087 255.997,128.544 255.997,127.999C255.997,57.307 198.691,0 128,0Z" style="fill:url(#_Linear1);fill-rule:nonzero;"/>
        <g id="path2999-1-61" serif:id="path2999-1-6" transform="matrix(0.753718,0,0,0.753718,31.5241,31.5241)">
            <path d="M128,0C57.309,0 0.003,57.307 0.003,127.999C0.003,128.544 -0.004,129.087 0.003,129.631C-0.004,129.698 0.003,129.766 0.003,129.835L0.003,254.16C0.003,255.169 0.712,255.997 1.595,255.997L126.408,255.997C126.463,255.998 126.517,255.996 126.571,255.997C127.047,256.002 127.523,255.997 128,255.997C128.477,255.997 128.953,256.002 129.429,255.997C129.481,256.004 129.537,255.997 129.592,255.997L254.405,255.997C255.288,255.997 255.997,255.169 255.997,254.16L255.997,129.835C255.997,129.766 256.004,129.698 255.997,129.631C256.004,129.087 255.997,128.544 255.997,127.999C255.997,57.307 198.691,0 128,0Z" style="fill:rgb(243,228,188);fill-opacity:0.9;fill-rule:nonzero;"/>
        </g>
        <g transform="matrix(3.67253,0,0,3.67253,6.8066,20.5861)">
            <g id="XMLID_10_">
                <g>
                    <g>
                        <g>
                            <g>
                                <path d="M33,12L13,19.3L13,43.6L33,52L53,43.6L53,19.1L33,12Z" style="fill:rgb(239,199,94);fill-rule:nonzero;"/>
                            </g>
                        </g>
                    </g>
                    <g>
                        <g>
                            <g>
                                <path d="M53,19.1L53,43.6L33,52L33,26.2L53,19.1Z" style="fill:rgb(231,191,85);fill-rule:nonzero;"/>
                            </g>
                        </g>
                    </g>
                    <g>
                        <g>
                            <g>
                                <path d="M45.9,21.7L45.9,28.1L40.7,30.1L40.7,23.6L40.5,23.5L45.8,21.6L45.9,21.7Z" style="fill:rgb(247,227,175);fill-rule:nonzero;"/>
                            </g>
                        </g>
                    </g>
                    <g>
                        <g>
                            <g>
                                <path d="M45.8,21.6L40.5,23.5L21.4,16.5L21.3,16.2L26.5,14.4L26.5,14.6L45.8,21.6Z" style="fill:rgb(255,237,197);fill-rule:nonzero;"/>
                            </g>
                        </g>
                    </g>
                    <g>
                        <g>
                            <g>
                                <path d="M33,26.2L33,52L13,43.6L13,19.3L33,26.2Z" style="fill:rgb(211,166,68);fill-rule:nonzero;"/>
                            </g>
                        </g>
                    </g>
                </g>
            </g>
            <g>
                <g>
                    <g>
                        <path d="M35,44L42,41L42,45L35,48L35,44Z" style="fill:white;fill-rule:nonzero;"/>
                    </g>
                </g>
            </g>
        </g>
        <g transform="matrix(0.0753824,-1.46368e-33,-1.46368e-33,-0.0753824,10.2666,220.519)">
            <clipPath id="_clip2">
                <rect x="743.152" y="534.613" width="681.352" height="675.61"/>
            </clipPath>
            <g clip-path="url(#_clip2)">
                <path d="M1059.1,921.531C1044.48,935.486 1030.44,949.21 1020.31,964.878C1049.41,1012.89 1116.06,1044.19 1135.32,1052.46C1145.54,1042.1 1172.95,1018.08 1211.29,1013.36C1195.4,1007.8 1095.96,971.507 1059.1,921.531M1102.75,812.162C1098.67,765.088 1069.26,725.186 1029.42,692.218C1038.97,707.38 1046.15,724.783 1047.81,743.987C1051.71,788.988 1021.17,819.864 991.626,849.724C961.576,880.102 933.187,908.795 936.906,951.716C941.236,1001.68 971.437,1046.84 1008.48,1084.26C998.223,1065.92 989.832,1045.46 988.117,1025.67C983.303,970.1 1018.68,936.371 1049.9,906.611C1078.89,878.97 1106.28,852.865 1102.74,812.162M899.993,616.683C941.906,647.419 974.767,686.245 993.259,728.424C1005.23,755.721 1010.15,782.31 1007.98,806.885C1022.76,788.555 1032.78,769.114 1030.73,745.472C1025.54,685.573 954.083,642.828 953.059,642.223L953.102,642.153C935.398,632.701 917.43,624.213 899.993,616.683M1104.66,1056.98C1076.84,1042.64 1036.08,1017.34 1011.2,982.27C1006.24,994.603 1003.83,1008.31 1005.2,1024.19C1009.23,1070.73 1058.02,1125.1 1065.7,1133.4C1094.29,1154.64 1121.56,1171 1140.1,1181.32C1126.69,1153.34 1107.4,1105.4 1104.66,1056.98M1398.71,1071.25C1397.07,1075.61 1392.18,1077.87 1387.8,1076.31L1325.26,1054C1298.99,1045.39 1268.46,1036.42 1242.06,1031.37C1185.21,1020.51 1144.51,1067.7 1144.12,1068.17C1141.77,1070.96 1137.89,1071.97 1134.49,1070.66C1133.71,1070.37 1129.31,1068.65 1122.56,1065.62C1129.49,1131.77 1167.38,1196.59 1167.8,1197.29C1168.57,1198.61 1168.98,1200.11 1168.98,1201.64C1168.98,1206.35 1165.11,1210.22 1160.4,1210.22C1159.15,1210.22 1157.9,1209.95 1156.76,1209.41C1154.49,1208.34 1100.39,1182.66 1043.85,1138.52C967.008,1078.51 925.278,1016.16 919.821,953.195C915.421,902.375 947.965,869.477 979.438,837.662C981.24,835.841 983.039,834.026 984.822,832.213C995.472,803.965 992.992,770.512 977.558,735.312C949.928,672.29 887.694,617.081 811.086,587.625C786.823,578.298 766.468,571.174 766.266,571.102C762.835,569.903 760.522,566.645 760.522,563.01C760.522,558.308 764.391,554.439 769.093,554.439C769.661,554.439 770.227,554.496 770.784,554.608C783.655,557.2 865.833,578.849 945.76,619.109C951.114,621.813 956.434,624.588 961.715,627.432L961.715,627.427L961.828,627.494C1060.74,680.654 1113.9,742.221 1119.83,810.683C1123.62,854.349 1098.76,883.106 1071.57,909.566C1105.87,959.174 1217.63,997.413 1218.91,997.849L1329.21,1037.2C1364.23,1048.62 1391.85,1059.48 1393.83,1060.27C1398.16,1061.97 1400.35,1066.9 1398.71,1071.25M439.269,356.251C433.201,342.348 415.013,333.677 393.781,333.516C375.416,333.516 350.416,343.477 348.364,368.423L366.248,367.953C369.179,355.428 380.302,348.563 393.781,348.563C408.441,348.724 418.208,353.963 421.742,362.141C424.442,368.192 422.253,374.741 422.084,374.902C418.542,384.387 407.599,386.517 393.781,390.605C378.111,395.187 358.911,398.95 353.014,414.981C349.814,423.318 350.655,432.972 355.036,440.825C364.806,458.817 390.92,459.312 393.781,459.312C412.313,459.312 436.501,453.046 438.064,429.137L420.185,429.137C415.202,441.186 407.935,444.26 393.784,444.26C393.617,444.26 377.613,444.26 371.885,433.79C369.696,429.702 369.19,424.305 370.71,420.048C374.077,411.057 384.855,408.927 398.332,405.003C414.344,400.257 433.543,396.659 439.946,380.135C440.452,378.99 444.494,367.864 439.274,356.254M560.092,382.263L541.769,430.681L523.283,382.263L560.092,382.263ZM597.715,335.146L578.083,335.146L565.815,367.21L517.56,367.21L505.453,335.148L485.821,335.148L536.208,457.835L547.331,457.835L597.715,335.146ZM668.13,335.146L649.974,335.146L649.974,457.835L668.13,457.835L668.13,335.146ZM809.572,350.2L809.572,335.148L729.581,335.148L729.581,457.835L747.739,457.835L747.739,350.2L809.572,350.2ZM873.516,442.788L873.516,404.509L925.377,404.509L925.377,389.457L873.516,389.457L873.516,335.148L855.361,335.148L855.361,457.835L936.826,457.835L936.826,442.788L873.516,442.788ZM1009.23,335.146L991.077,335.146L991.077,457.835L1009.23,457.835L1009.23,335.146ZM1661.91,356.251C1655.84,342.348 1637.65,333.677 1616.42,333.516C1598.05,333.516 1573.06,343.477 1571,368.423L1588.88,367.953C1591.82,355.428 1602.94,348.563 1616.42,348.563C1631.08,348.724 1640.85,353.963 1644.38,362.141C1647.08,368.192 1644.89,374.741 1644.72,374.902C1641.18,384.387 1630.24,386.517 1616.42,390.605C1600.75,395.187 1581.55,398.95 1575.65,414.981C1572.45,423.318 1573.3,432.972 1577.68,440.825C1587.45,458.817 1613.56,459.312 1616.42,459.312C1634.95,459.312 1659.14,453.046 1660.7,429.137L1642.82,429.137C1637.84,441.186 1630.57,444.26 1616.42,444.26C1616.25,444.26 1600.25,444.26 1594.52,433.79C1592.33,429.702 1591.83,424.305 1593.35,420.048C1596.71,411.057 1607.49,408.927 1620.97,405.003C1636.98,400.257 1656.18,396.659 1662.58,380.135C1663.09,378.99 1667.13,367.864 1661.91,356.254M1300.64,457.835L1300.64,335.148L1282.49,335.148L1282.49,388.97L1224.74,388.97L1224.74,335.146L1206.59,335.146L1206.59,457.835L1224.74,457.835L1224.74,404.017L1282.49,404.017L1282.49,457.835L1300.64,457.835ZM1436.06,396.494C1436.06,371.465 1450.72,348.563 1473.97,348.563C1497.38,348.563 1511.82,371.465 1511.82,396.494C1511.82,421.357 1497.23,444.257 1473.97,444.257C1450.72,444.257 1436.06,421.357 1436.06,396.494M1530.05,396.494C1530.05,360.831 1504.88,333.516 1473.97,333.516C1443.07,333.516 1417.9,360.831 1417.9,396.494C1417.9,432.155 1443.07,459.312 1473.97,459.312C1504.88,459.312 1530.05,432.158 1530.05,396.494M1154.18,356.251C1148.12,342.348 1129.93,333.677 1108.69,333.516C1090.33,333.516 1065.33,343.477 1063.28,368.423L1081.16,367.953C1084.09,355.428 1095.22,348.563 1108.69,348.563C1123.36,348.724 1133.12,353.963 1136.66,362.141C1139.36,368.192 1137.17,374.741 1137,374.902C1133.46,384.387 1122.51,386.517 1108.69,390.605C1093.02,395.187 1073.83,398.95 1067.93,414.981C1064.73,423.318 1065.57,432.972 1069.95,440.825C1079.72,458.817 1105.83,459.312 1108.69,459.312C1127.23,459.312 1151.41,453.046 1152.98,429.137L1135.1,429.137C1130.11,441.186 1122.85,444.26 1108.69,444.26C1108.53,444.26 1092.52,444.26 1086.8,433.79C1084.61,429.702 1084.1,424.305 1085.62,420.048C1088.99,411.057 1099.77,408.927 1113.24,405.003C1129.26,400.257 1148.45,396.659 1154.86,380.135C1155.37,378.99 1159.4,367.864 1154.18,356.254" style="fill:rgb(35,31,32);fill-rule:nonzero;"/>
            </g>
        </g>
    </g>
    <defs>
        <linearGradient id="_Linear1" x1="0" y1="0" x2="1" y2="0" gradientUnits="userSpaceOnUse" gradientTransform="matrix(154.159,169.959,-169.959,154.159,68.7931,53.8115)"><stop offset="0" style="stop-color:rgb(211,166,68);stop-opacity:1"/><stop offset="1" style="stop-color:rgb(53,107,121);stop-opacity:1"/></linearGradient>
    </defs>
</svg>
