<svg enable-background="new 2.7 326.5 506.7 181" height="185.71" viewBox="2.7 326.5 185.81 185.71" width="185.81" xmlns="http://www.w3.org/2000/svg" xmlns:xlink="http://www.w3.org/1999/xlink">
  <linearGradient id="a" gradientUnits="userSpaceOnUse" x1="248.27" x2="152.98" y1="459.14" y2="384.31">
    <stop offset="0" stop-color="#ce8628"/>
    <stop offset="1" stop-color="#f2bd5d"/>
  </linearGradient>
  <linearGradient id="b" gradientUnits="userSpaceOnUse" x1="115.12" x2="82.284" y1="377.02" y2="390.92">
    <stop offset="0" stop-color="#a76a0b"/>
    <stop offset="1" stop-color="#d8922d"/>
  </linearGradient>
  <linearGradient id="c" gradientUnits="userSpaceOnUse" x1="146.73" x2="198.83" y1="381.19" y2="391.88">
    <stop offset="0" stop-color="#aa6c0c"/>
    <stop offset="1" stop-color="#db9733"/>
  </linearGradient>
  <filter id="d" color-interpolation-filters="sRGB">
    <feColorMatrix values="0.272455 0 0 0 0.727545 0 0.272455 0 0 0.727545 0 0 0.272455 0 0.727545 0 0 0 1 0"/>
  </filter>
  <filter id="e" color-interpolation-filters="sRGB">
    <feColorMatrix values="0.272455 0 0 0 0.727545 0 0.272455 0 0 0.727545 0 0 0.272455 0 0.727545 0 0 0 1 0"/>
  </filter>
  <g transform="translate(-39.656 -27.535)">
    <g filter="url(#d)" stroke="#4c310f" stroke-width="2" transform="matrix(.855 0 0 .855 22.478 50.906)">
      <path d="m117.56 376.44-48.9 3.601-27.3 27.5 73.6-5.5c.9-7.901 1.7-16.001 2.6-25.601z" fill="url(#b)"/>
      <path d="m211.66 394.94-42.3-22.3-37.6 2.8c2.3 9.3 4.3 17.2 6.3 25z" fill="url(#c)" stroke-linecap="round" stroke-linejoin="bevel"/>
      <path d="m147.4 507.5 170.2-12.7-10.3-139.6-73.6 5.5 2.1 28.6-23 1.7-2.1-28.6-73.6 5.5z" fill="url(#a)" transform="translate(-95.14 46.137)"/>
    </g>
    <path d="m98.824 506.03c-.49088-.38611-.55141-1.0541-.13947-1.539.15599-.1836 1.1657-.64305 2.3245-1.0577 3.6697-1.3131 5.6372-2.1309 7.7507-3.2216 9.1567-4.7253 15.653-12.253 17.478-20.252.42363-1.8576.39197-4.6581-.0712-6.3037-.3513-1.248-.37284-1.2791-2.1266-3.0731-3.5402-3.6214-5.0719-5.9243-5.8701-8.8252-.38752-1.4085-.39113-4.6363-.007-6.4613 1.6721-7.9489 7.7427-15.588 18.204-22.906 4.0379-2.8248 10.068-6.249 11.004-6.249.59075 0 .99594.42861.99594 1.0535 0 .26785-.34533 1.1331-.78733 1.9727-1.1896 2.2597-2.1366 4.504-3.0787 7.2962-.75906 2.2496-1.6497 5.9389-1.6497 6.8334v.33248l.80615-.31774c.47815-.18847.94297-.27467 1.1426-.21187.18502.0582.8756.61003 1.5346 1.2262 2.8953 2.7072 6.7487 4.125 10.083 3.7096 2.8352-.3532 7.5995-1.7067 14.236-4.0444 5.0826-1.7904 5.27-1.8222 5.7457-.97457.34089.60733.12393 1.1894-.57345 1.5384-.32365.16201-1.6168.65801-2.8736 1.1022-14.493 5.1227-19.168 6.798-21.039 7.5393-4.4355 1.7574-9.0355 4.1802-11.601 6.1102-1.2185.91666-3.2139 2.804-3.4729 3.2847-.12452.23115.0535.5029.97757 1.4924 4.3948 4.7058 5.5077 8.5308 4.0743 14.003-2.5361 9.6826-13.563 18.39-31.676 25.013-3.8317 1.401-9.935 3.2548-10.72 3.256-.13999.00016-.44138-.14659-.66977-.32623zm21.197-9.6129c4.4953-2.252 8.3197-5.8454 10.135-9.5233 1.8068-3.66 1.6267-6.8323-.56984-10.035l-.68369-.99678-.099 1.6547c-.12369 2.0668-.34934 3.2935-.95666 5.2006-.90175 2.8316-2.497 5.8206-4.5603 8.5448-1.0051 1.327-4.4566 4.8933-5.8883 6.0842l-.78797.65542.62908-.25335c.346-.13934 1.5976-.73852 2.7813-1.3315zm15.978-11.898c2.5549-3.2442 3.9373-6.5687 4.1238-9.9174.0963-1.7296-.0657-2.7904-.64057-4.1944-.74778-1.8262-1.7879-3.1096-5.605-6.916-4.0457-4.0344-5.3527-5.6303-6.3882-7.8009-1.0838-2.2718-1.2615-3.1007-1.2496-5.831.0115-2.6333.26974-3.8052 1.3916-6.315l.55852-1.2495-.64808.70917c-4.6967 5.1394-7.3798 10.744-7.4316 15.523-.0187 1.7228.21341 2.7574.98985 4.4126.90373 1.9266 1.9402 3.2545 5.2436 6.7179 4.3868 4.5995 5.0531 5.426 6.1699 7.6539.83525 1.6662 1.0992 2.8527 1.0974 4.9334-.003 2.0098-.31378 3.4334-1.1634 5.3072-.25936.57204-.47159 1.0821-.47159 1.1334 0 .21568 3.1023-2.9971 4.0233-4.1665zm2.6784-26.862c3.0118-2.2637 7.2844-4.5643 11.98-6.4504 2.0334-.81683 2.2699-.94796 1.8699-1.0364-.86801-.19192-2.4317-.71071-3.3015-1.0954-1.1465-.50703-3.2575-1.8972-4.2618-2.8066l-.80158-.72578-2.1139 1.0665c-3.672 1.8526-6.7605 3.9734-8.9759 6.1635-1.2259 1.2119-2.6724 3.0398-2.6724 3.3771 0 .27939 1.5894 2.1879 3.1179 3.7439l1.3425 1.3666 1.1784-1.2527c.64815-.68899 1.8356-1.7466 2.6388-2.3503zm-9.0969-4.4717c.53545-.78641 2.6886-2.9194 4.0874-4.0491 1.4835-1.1981 4.1194-2.935 5.65-3.7229l1.1258-.57955.0928-1.1908c.25848-3.3179 1.6842-8.4275 3.4192-12.254.25845-.56994.46987-1.1041.46987-1.187 0-.26314-4.2308 2.3288-7.0184 4.2998-1.4753 1.0431-1.9564 1.5002-3.1728 3.0141-2.7211 3.3866-4.6748 6.8063-5.4312 9.5066-.45902 1.6386-.49144 3.9326-.0785 5.5552.15994.62841.33634 1.1421.39202 1.1415.0557-.00069.26441-.24079.46389-.53375z" fill="#4c310f" filter="url(#e)" stroke-width=".15759"/>
  </g>
</svg>
